<?xml version="1.0" standalone="no"?>
<!DOCTYPE svg PUBLIC "-//W3C//DTD SVG 20010904//EN"
 "http://www.w3.org/TR/2001/REC-SVG-20010904/DTD/svg10.dtd">
<svg version="1.0" xmlns="http://www.w3.org/2000/svg"
 width="696.000000pt" height="1011.000000pt" viewBox="0 0 696.000000 1011.000000"
 preserveAspectRatio="xMidYMid meet">

<g transform="translate(0.000000,1011.000000) scale(0.100000,-0.100000)"
fill="#000000" stroke="none">
<path d="M220 10101 c-83 -26 -150 -82 -191 -161 l-24 -45 0 -4840 0 -4840 27
-50 c31 -60 77 -104 138 -136 l45 -24 3265 0 3265 0 45 24 c61 32 107 76 138
136 l27 50 0 4840 0 4840 -24 45 c-32 61 -76 107 -136 138 l-50 27 -3250 2
c-1787 1 -3261 -2 -3275 -6z m6530 -27 c74 -22 152 -100 174 -174 15 -49 16
-504 16 -4845 0 -4341 -1 -4796 -16 -4845 -12 -39 -29 -66 -68 -106 -94 -93
263 -84 -3376 -84 -3639 0 -3282 -9 -3376 84 -39 40 -56 67 -68 106 -15 49
-16 504 -16 4845 0 4341 1 4796 16 4845 21 71 100 152 170 174 43 13 437 15
3270 15 2909 1 3226 -1 3274 -15z"/>
<path d="M2363 7509 c-221 -28 -445 -218 -499 -423 -29 -108 -10 -250 50 -368
l33 -66 -81 39 c-256 123 -518 42 -682 -211 -125 -193 -131 -428 -15 -607 88
-137 176 -204 328 -253 152 -49 285 -65 768 -95 477 -29 740 -82 957 -191 37
-19 70 -34 72 -34 3 0 -15 42 -39 93 -114 244 -159 487 -190 1032 -26 459 -55
637 -129 782 -105 209 -339 332 -573 302z"/>
<path d="M5721 7058 c-80 -28 -248 -53 -581 -88 -680 -70 -968 -127 -1175
-233 -104 -54 -199 -146 -245 -240 -81 -166 -35 -380 110 -511 103 -93 239
-112 580 -81 l65 6 -38 -33 c-115 -102 -614 -338 -714 -338 -25 0 3 -31 242
-270 l270 -270 7 38 c12 72 80 236 170 414 84 166 183 326 195 315 3 -3 -3
-72 -13 -153 -20 -168 -13 -273 27 -379 30 -80 118 -169 214 -216 66 -32 74
-34 180 -34 102 0 115 2 176 31 39 19 93 57 133 94 125 117 207 331 270 705
23 137 35 241 96 797 25 226 44 341 69 414 11 30 19 53 18 53 -1 -1 -26 -10
-56 -21z"/>
<path d="M2043 5006 c-206 -47 -387 -229 -423 -425 -51 -275 119 -562 387
-656 l62 -22 -89 -7 c-316 -24 -531 -174 -595 -416 -17 -64 -19 -205 -4 -270
35 -153 174 -322 329 -399 160 -79 331 -78 496 4 94 46 170 127 223 238 51
106 70 179 78 302 5 80 8 94 16 75 80 -197 169 -301 322 -375 96 -46 159 -58
282 -53 97 4 108 7 190 48 115 57 206 147 256 251 104 219 67 467 -93 628
-119 119 -255 168 -445 158 -61 -3 -143 -14 -182 -25 -40 -11 -73 -16 -73 -12
0 12 105 106 185 165 154 115 293 170 478 187 25 3 9 22 -203 233 l-230 230 0
-56 c0 -124 -70 -309 -167 -440 -60 -82 -142 -176 -169 -194 l-22 -14 19 58
c38 125 42 324 8 430 -49 153 -176 283 -328 338 -83 31 -219 39 -308 19z"/>
<path d="M3935 4564 c70 -164 157 -453 199 -655 48 -232 59 -375 52 -669 -3
-146 -10 -290 -15 -320 -4 -30 -7 -56 -6 -58 2 -2 36 2 76 8 121 18 490 24
635 11 259 -24 540 -88 814 -184 85 -30 164 -58 174 -62 16 -7 18 -5 11 11 -4
10 -32 89 -62 174 -98 278 -161 560 -184 820 -13 150 -7 508 11 629 6 40 10
74 8 76 -2 1 -32 -2 -68 -8 -98 -16 -656 -15 -765 2 -294 44 -595 126 -869
237 -16 6 -18 4 -11 -12z"/>
</g>
</svg>
